# xmcd
#
# Track frame offsets: 
#        150
#        19865
#        35550
#        52397
#        67822
#        85899
#        98167
#        110053
#        125140
#        137171
#        150902
#        165583
#        182602
#        198190
#
# Disc length: 2848 seconds
#
# Revision: 0
# Processed by: cddbd v1.5.2PL0 Copyright (c) Steve Scherf et al.
# Submitted via: ExactAudioCopy v1.0b4
#
DISCID=bd0b1e0e
DTITLE=José Augusto - José Augusto - Sábado (2010)
DYEAR=2010
DGENRE=Other
TTITLE0=01. Sábado
TTITLE1=02. De Que Vale Ter Tudo Na Vida
TTITLE2=03. Hey!
TTITLE3=04. Ninguém Vai Te Amar Como Eu Te Amei
TTITLE4=05. Me Esqueci De Viver
TTITLE5=06. Esqueça
TTITLE6=07. Não Tem Problema
TTITLE7=08. Você Não Sabe O Que É Amar
TTITLE8=09. Eu Quero Apenas Carinho
TTITLE9=10. Palavra, Palavras...
TTITLE10=11. Quem Nega A Luz, Na Sombra Vai Morrer
TTITLE11=12. Doce Engano
TTITLE12=13. Deus, Meu Deus, Meu Deus
TTITLE13=14. Luzes Da Ribalta
EXTD=
EXTT0=
EXTT1=
EXTT2=
EXTT3=
EXTT4=
EXTT5=
EXTT6=
EXTT7=
EXTT8=
EXTT9=
EXTT10=
EXTT11=
EXTT12=
EXTT13=
PLAYORDER=
